<svg width="1884" height="362" viewBox="0 0 1884 362" fill="none" xmlns="http://www.w3.org/2000/svg">
<path d="M415.04 126.44V243H400.96C398.88 243 397.12 242.68 395.68 242.04C394.293 241.347 392.907 240.173 391.52 238.52L336.56 169C336.773 171.08 336.907 173.107 336.96 175.08C337.067 177 337.12 178.813 337.12 180.52V243H313.28V126.44H327.52C328.693 126.44 329.68 126.493 330.48 126.6C331.28 126.707 332 126.92 332.64 127.24C333.28 127.507 333.893 127.907 334.48 128.44C335.067 128.973 335.733 129.693 336.48 130.6L391.92 200.6C391.653 198.36 391.467 196.2 391.36 194.12C391.253 191.987 391.2 189.987 391.2 188.12V126.44H415.04ZM548.415 184.68C548.415 193.107 546.948 200.893 544.015 208.04C541.135 215.133 537.055 221.293 531.775 226.52C526.495 231.693 520.122 235.747 512.655 238.68C505.242 241.56 497.002 243 487.935 243H442.655V126.44H487.935C497.002 126.44 505.242 127.907 512.655 130.84C520.122 133.773 526.495 137.827 531.775 143C537.055 148.173 541.135 154.333 544.015 161.48C546.948 168.573 548.415 176.307 548.415 184.68ZM520.735 184.68C520.735 178.92 519.988 173.72 518.495 169.08C517.002 164.44 514.842 160.52 512.015 157.32C509.242 154.067 505.828 151.587 501.775 149.88C497.722 148.12 493.108 147.24 487.935 147.24H469.855V222.2H487.935C493.108 222.2 497.722 221.347 501.775 219.64C505.828 217.88 509.242 215.4 512.015 212.2C514.842 208.947 517.002 205 518.495 200.36C519.988 195.72 520.735 190.493 520.735 184.68ZM647.934 212.84C648.574 212.84 649.214 212.973 649.854 213.24C650.494 213.453 651.107 213.853 651.694 214.44L662.414 225.72C657.72 231.853 651.827 236.493 644.734 239.64C637.694 242.733 629.347 244.28 619.694 244.28C610.84 244.28 602.894 242.787 595.854 239.8C588.867 236.76 582.92 232.6 578.014 227.32C573.16 221.987 569.427 215.693 566.814 208.44C564.2 201.133 562.894 193.213 562.894 184.68C562.894 175.987 564.307 168.013 567.134 160.76C569.96 153.453 573.934 147.16 579.054 141.88C584.174 136.6 590.307 132.493 597.454 129.56C604.6 126.627 612.467 125.16 621.054 125.16C625.427 125.16 629.534 125.56 633.374 126.36C637.267 127.107 640.894 128.173 644.254 129.56C647.614 130.893 650.707 132.52 653.534 134.44C656.36 136.36 658.867 138.44 661.054 140.68L651.934 152.92C651.347 153.667 650.654 154.36 649.854 155C649.054 155.587 647.934 155.88 646.494 155.88C645.534 155.88 644.627 155.667 643.774 155.24C642.92 154.813 642.014 154.307 641.054 153.72C640.094 153.08 639.027 152.413 637.854 151.72C636.734 150.973 635.374 150.307 633.774 149.72C632.227 149.08 630.387 148.547 628.254 148.12C626.174 147.693 623.72 147.48 620.894 147.48C616.414 147.48 612.307 148.307 608.574 149.96C604.894 151.613 601.694 154.04 598.974 157.24C596.307 160.387 594.227 164.28 592.734 168.92C591.294 173.507 590.574 178.76 590.574 184.68C590.574 190.653 591.374 195.96 592.974 200.6C594.627 205.24 596.84 209.16 599.614 212.36C602.44 215.507 605.72 217.907 609.454 219.56C613.187 221.213 617.187 222.04 621.454 222.04C623.907 222.04 626.147 221.933 628.174 221.72C630.2 221.453 632.094 221.053 633.854 220.52C635.614 219.933 637.267 219.187 638.814 218.28C640.36 217.32 641.934 216.12 643.534 214.68C644.174 214.147 644.867 213.72 645.614 213.4C646.36 213.027 647.134 212.84 647.934 212.84ZM785.489 200.44L767.489 153.8C766.955 152.413 766.395 150.813 765.809 149C765.222 147.133 764.662 145.16 764.129 143.08C763.009 147.4 761.862 151 760.689 153.88L742.689 200.44H785.489ZM817.809 243H805.809C804.422 243 803.302 242.653 802.449 241.96C801.595 241.267 800.955 240.387 800.529 239.32L789.809 211.64H738.369L727.649 239.32C727.329 240.28 726.715 241.133 725.809 241.88C724.902 242.627 723.782 243 722.449 243H710.449L756.289 128.36H771.969L817.809 243ZM879.474 230.68C884.22 230.68 888.46 229.88 892.194 228.28C895.927 226.68 899.074 224.44 901.634 221.56C904.247 218.68 906.22 215.24 907.554 211.24C908.94 207.24 909.634 202.84 909.634 198.04V128.36H925.074V198.04C925.074 204.653 924.007 210.787 921.874 216.44C919.794 222.093 916.78 227 912.834 231.16C908.94 235.267 904.167 238.493 898.514 240.84C892.86 243.187 886.514 244.36 879.474 244.36C872.434 244.36 866.087 243.187 860.434 240.84C854.78 238.493 849.98 235.267 846.034 231.16C842.087 227 839.047 222.093 836.914 216.44C834.834 210.787 833.794 204.653 833.794 198.04V128.36H849.234V197.96C849.234 202.76 849.9 207.16 851.234 211.16C852.62 215.16 854.594 218.6 857.154 221.48C859.767 224.36 862.94 226.627 866.674 228.28C870.46 229.88 874.727 230.68 879.474 230.68ZM1035.41 141.4H998.29V243H982.85V141.4H945.65V128.36H1035.41V141.4ZM1158.19 185.72C1158.19 194.307 1156.83 202.2 1154.11 209.4C1151.39 216.547 1147.55 222.707 1142.59 227.88C1137.63 233.053 1131.65 237.08 1124.67 239.96C1117.73 242.787 1110.05 244.2 1101.63 244.2C1093.2 244.2 1085.52 242.787 1078.59 239.96C1071.65 237.08 1065.71 233.053 1060.75 227.88C1055.79 222.707 1051.95 216.547 1049.23 209.4C1046.51 202.2 1045.15 194.307 1045.15 185.72C1045.15 177.133 1046.51 169.267 1049.23 162.12C1051.95 154.92 1055.79 148.733 1060.75 143.56C1065.71 138.333 1071.65 134.28 1078.59 131.4C1085.52 128.52 1093.2 127.08 1101.63 127.08C1110.05 127.08 1117.73 128.52 1124.67 131.4C1131.65 134.28 1137.63 138.333 1142.59 143.56C1147.55 148.733 1151.39 154.92 1154.11 162.12C1156.83 169.267 1158.19 177.133 1158.19 185.72ZM1142.27 185.72C1142.27 178.68 1141.31 172.36 1139.39 166.76C1137.47 161.16 1134.75 156.44 1131.23 152.6C1127.71 148.707 1123.44 145.72 1118.42 143.64C1113.41 141.56 1107.81 140.52 1101.63 140.52C1095.49 140.52 1089.92 141.56 1084.91 143.64C1079.89 145.72 1075.6 148.707 1072.03 152.6C1068.51 156.44 1065.79 161.16 1063.87 166.76C1061.95 172.36 1060.99 178.68 1060.99 185.72C1060.99 192.76 1061.95 199.08 1063.87 204.68C1065.79 210.227 1068.51 214.947 1072.03 218.84C1075.6 222.68 1079.89 225.64 1084.91 227.72C1089.92 229.747 1095.49 230.76 1101.63 230.76C1107.81 230.76 1113.41 229.747 1118.42 227.72C1123.44 225.64 1127.71 222.68 1131.23 218.84C1134.75 214.947 1137.47 210.227 1139.39 204.68C1141.31 199.08 1142.27 192.76 1142.27 185.72ZM1304.67 128.36V243H1291.07V158.76C1291.07 157.64 1291.1 156.44 1291.15 155.16C1291.26 153.88 1291.36 152.573 1291.47 151.24L1252.11 222.92C1250.88 225.32 1249.02 226.52 1246.51 226.52H1244.27C1241.76 226.52 1239.9 225.32 1238.67 222.92L1198.51 150.92C1198.83 153.747 1198.99 156.36 1198.99 158.76V243H1185.39V128.36H1196.83C1198.22 128.36 1199.28 128.493 1200.03 128.76C1200.78 129.027 1201.5 129.773 1202.19 131L1241.79 201.56C1242.43 202.84 1243.04 204.173 1243.63 205.56C1244.27 206.947 1244.86 208.36 1245.39 209.8C1245.92 208.36 1246.48 206.947 1247.07 205.56C1247.66 204.12 1248.3 202.76 1248.99 201.48L1287.87 131C1288.51 129.773 1289.2 129.027 1289.95 128.76C1290.75 128.493 1291.84 128.36 1293.23 128.36H1304.67ZM1399.86 200.44L1381.86 153.8C1381.33 152.413 1380.77 150.813 1380.18 149C1379.6 147.133 1379.04 145.16 1378.5 143.08C1377.38 147.4 1376.24 151 1375.06 153.88L1357.06 200.44H1399.86ZM1432.18 243H1420.18C1418.8 243 1417.68 242.653 1416.82 241.96C1415.97 241.267 1415.33 240.387 1414.9 239.32L1404.18 211.64H1352.74L1342.02 239.32C1341.7 240.28 1341.09 241.133 1340.18 241.88C1339.28 242.627 1338.16 243 1336.82 243H1324.82L1370.66 128.36H1386.34L1432.18 243ZM1518.54 141.4H1481.42V243H1465.98V141.4H1428.78V128.36H1518.54V141.4ZM1556.07 243H1540.55V128.36H1556.07V243ZM1696.31 185.72C1696.31 194.307 1694.95 202.2 1692.23 209.4C1689.51 216.547 1685.67 222.707 1680.71 227.88C1675.75 233.053 1669.78 237.08 1662.79 239.96C1655.86 242.787 1648.18 244.2 1639.75 244.2C1631.32 244.2 1623.64 242.787 1616.71 239.96C1609.78 237.08 1603.83 233.053 1598.87 227.88C1593.91 222.707 1590.07 216.547 1587.35 209.4C1584.63 202.2 1583.27 194.307 1583.27 185.72C1583.27 177.133 1584.63 169.267 1587.35 162.12C1590.07 154.92 1593.91 148.733 1598.87 143.56C1603.83 138.333 1609.78 134.28 1616.71 131.4C1623.64 128.52 1631.32 127.08 1639.75 127.08C1648.18 127.08 1655.86 128.52 1662.79 131.4C1669.78 134.28 1675.75 138.333 1680.71 143.56C1685.67 148.733 1689.51 154.92 1692.23 162.12C1694.95 169.267 1696.31 177.133 1696.31 185.72ZM1680.39 185.72C1680.39 178.68 1679.43 172.36 1677.51 166.76C1675.59 161.16 1672.87 156.44 1669.35 152.6C1665.83 148.707 1661.56 145.72 1656.55 143.64C1651.54 141.56 1645.94 140.52 1639.75 140.52C1633.62 140.52 1628.04 141.56 1623.03 143.64C1618.02 145.72 1613.72 148.707 1610.15 152.6C1606.63 156.44 1603.91 161.16 1601.99 166.76C1600.07 172.36 1599.11 178.68 1599.11 185.72C1599.11 192.76 1600.07 199.08 1601.99 204.68C1603.91 210.227 1606.63 214.947 1610.15 218.84C1613.72 222.68 1618.02 225.64 1623.03 227.72C1628.04 229.747 1633.62 230.76 1639.75 230.76C1645.94 230.76 1651.54 229.747 1656.55 227.72C1661.56 225.64 1665.83 222.68 1669.35 218.84C1672.87 214.947 1675.59 210.227 1677.51 204.68C1679.43 199.08 1680.39 192.76 1680.39 185.72ZM1816.4 128.36V243H1808.64C1807.41 243 1806.37 242.787 1805.52 242.36C1804.72 241.933 1803.92 241.213 1803.12 240.2L1736.8 153.8C1736.9 155.133 1736.98 156.44 1737.04 157.72C1737.09 159 1737.12 160.2 1737.12 161.32V243H1723.52V128.36H1731.52C1732.21 128.36 1732.8 128.413 1733.28 128.52C1733.76 128.573 1734.18 128.707 1734.56 128.92C1734.93 129.08 1735.3 129.347 1735.68 129.72C1736.05 130.04 1736.45 130.467 1736.88 131L1803.2 217.32C1803.09 215.933 1802.98 214.6 1802.88 213.32C1802.82 211.987 1802.8 210.733 1802.8 209.56V128.36H1816.4Z" fill="black"/>
<path d="M57.0685 100.004L57.1729 112.594C57.2415 115.156 58.236 117.607 59.9735 119.498C61.7111 121.388 64.075 122.59 66.6309 122.883C116.809 127.445 157.398 168.142 161.852 218.559C162.086 221.125 163.269 223.514 165.171 225.261C167.073 227.008 169.558 227.99 172.145 228.015L185.5 228.14C185.5 227.766 185.5 227.391 185.5 227.017C185.505 210.258 182.179 193.664 175.714 178.191C169.25 162.719 159.775 148.674 147.836 136.867C135.897 125.059 121.73 115.723 106.151 109.396C90.5727 103.07 73.8913 99.8773 57.0685 100.004V100.004Z" fill="#061BCA"/>
<path d="M68.9554 146.642L57.0685 156.945V169.459H57.848C86.7719 169.459 110.741 191.645 114.986 219.3C115.379 221.738 116.63 223.956 118.514 225.559C120.399 227.162 122.794 228.045 125.272 228.05H139.08C139.094 187.117 108.569 152.147 68.9554 146.642Z" fill="#061BCA"/>
<path d="M14.0723 227.842H0C0.584604 258.687 25.7991 283.556 56.9989 284V270.189C56.9821 267.856 56.1855 265.595 54.7348 263.763C53.2842 261.931 51.2623 260.633 48.9884 260.074C43.0667 258.548 37.6548 255.49 33.3004 251.211C28.946 246.932 25.8037 241.582 24.1915 235.704C23.6102 233.466 22.303 231.482 20.473 230.06C18.6431 228.638 16.3929 227.859 14.0723 227.842V227.842Z" fill="#061BCA"/>
<path d="M67.5775 228.161H80.1465V149.124C76.5179 147.884 72.766 147.036 68.9555 146.594C67.473 146.387 65.9631 146.5 64.5283 146.926C63.0935 147.351 61.7674 148.079 60.64 149.061C59.5125 150.042 58.6101 151.253 57.9939 152.612C57.3777 153.971 57.0621 155.446 57.0686 156.938L57.1382 217.775C57.1419 220.531 58.2434 223.173 60.2007 225.12C62.1581 227.067 64.8112 228.161 67.5775 228.161V228.161Z" fill="#061BCA"/>
</svg>
